<?xml version="1.0" encoding="UTF-8"?>
<!DOCTYPE svg  PUBLIC '-//W3C//DTD SVG 20010904//EN'  'http://www.w3.org/TR/2001/REC-SVG-20010904/DTD/svg10.dtd'>
<svg viewBox="0 0 983 692" xmlns="http://www.w3.org/2000/svg" xmlns:krita="http://krita.org/namespaces/svg/krita">
  <path transform="translate(70.068 191.17)" d="m715.26 260.41c1.535 1.588 19.793 4.836 42.92 6.924 12.134 1.331 30.211 5.338 39.25 5.5 0.668 6.27 2.204 10.059 2.75 16-3.615 10.451-9.367 16.021-18.25 37.5-14.958 9.103-26 19.31-35 29.75-27.792-9.49-84.714-24.699-133-28.25-24.617-0.645-53.206 4.442-107.75 28-38.809-3.402-81.434-13.635-140.67-27.983-44.417-10.617-90.112-24.075-130.33-39.517-38.536-14.796-72.841-31.905-93.884-42.123-22.389 24.339-70.883 67.999-101.12 96.873-15.365-50.459-45.893-243.58-39.25-295.25 46.347 16.688 109.09 28.09 120.63 46.671 9.136-9.5655 33.608-18.577 50.874-24.421 33.861-8.8646 64.998-16.482 96-24.5 78.373-17.59 113.53-29.354 186.88-40.881 27.087-4.2568 71.342-7.3318 107.48-1.4142 61.723 10.107 115.21 35.106 130.82 43.134 24.749 12.728 115.53 66.982 135.82 81.412 14.049 19.931 23.886 33.729 31.25 45s10.996 18.176 14.125 25.375c-5.996 3.575-29.451 10.593-49 17.25s-100.29 34.604-122.25 45.625c-14.642 7.348-26.444 14.047-35.406 20.098" fill="none" stroke="#fff" stroke-linecap="square" stroke-linejoin="bevel" stroke-width="18"/>
  <path transform="translate(572.4 212.84)" d="m122.51 0c-14.672 17.678-24.925 26.87-51.088 45.962-17.442 12.728-39.244 31.702-65.407 56.922 5.1855 11.849 7.1889 21.941 6.0104 30.277-1.7678 12.503-12.021 30.181-12.021 39.373s4.5962 21.213 6.0104 28.991c1.4142 7.779 3.8891 23.335 8.8388 31.82 4.9498 8.486 22.274 33.941 30.759 41.72 5.377 4.928 15.129 14.15 29.256 27.665 0.7871 0.719 1.8477 2.075 3.182 4.066" fill="none" stroke="#fff" stroke-linecap="square" stroke-linejoin="bevel" stroke-width="18"/>
  <path transform="translate(357.09 94.5)" d="m195.91 96c0.199-2.6797-33.114-32.38-43.75-44-7.09-7.7467-16.174-25.08-27.25-52 4.667 29-0.5 45.167-15.5 48.5-15 3.3333-33.75-6.1667-56.25-28.5 2.0674 13.68 2.7341 24.68 2 33-1.189 13.475-2.8437 19.747-6 24.875-7.5709 12.3-15.792 10.84-21.375 9.375 0.1477 6.2251-4.2639 14.421-8.125 20.25-6.4745 9.774-20.401 25.551-19.625 28.875" fill="none" stroke="#fff" stroke-linecap="square" stroke-linejoin="bevel" stroke-width="18" krita:marker-fill-method="auto"/>
  <path transform="translate(429.21 352.49)" d="m144.25 44.901c-12.728-0.2357-21.331-1.0607-25.81-2.4749-6.717-2.1213-47.254-19.445-56.154-23.334s-35.77-13.081-41.073-14.142c-3.5355-0.70711-10.607-2.357-21.213-4.9498 3.2998 16.735 5.4212 27.931 6.364 33.588 1.4142 8.4853 7.7781 55.861 13.789 62.579 4.007 4.4785 13.082 6.3635 27.224 5.6565" fill="none" stroke="#fff" stroke-linecap="square" stroke-linejoin="bevel" stroke-width="18"/>
  <path transform="translate(253.32 323.64)" d="m53.179 29.861c-3-8-6.5-14.333-10.5-19-6-7-14.026-11.322-22.526-10.822-8.5 0.5-20.152 8.4099-20.152 15.91s0.25305 32.381 10.253 50.381c10 18 34.482 22.652 41.543 21.036 4.7071-1.0774 6.8873-4.0826 6.5407-9.0156" fill="none" stroke="#fff" stroke-linecap="square" stroke-linejoin="bevel" stroke-width="18"/>
  <ellipse transform="translate(741.83 321.94)" cx="24.535" cy="24.063" rx="24.535" ry="24.063" fill="none" stroke="#fff" stroke-linecap="square" stroke-linejoin="bevel" stroke-width="30"/>
</svg>
